# xmcd CD database file generated by OrangeCD 4.2
#
# Track frame offsets:
#	150
#	12740
#	24838
#	37978
#	50880
#	63415
#	76383
#	88888
#	102198
#	114548
#	129383
#	142760
#	154833
#	167205
#
# Disc length: 2381 seconds
#
# Revision: 3
# Processed by: cddbd v1.4PL0 Copyright (c) Steve Scherf et al.
# Submitted via: OrangeCD 4.2
#
DISCID=b5094b0e
DTITLE=Broonzy, Big Bill - The Young Bill Broonzy 1928 - 1935
DYEAR=1900
DGENRE=Blues
TTITLE0=Long Tall Mama (1932)
TTITLE1=Mississippi River Blues (1934)
TTITLE2=Saturday Night Rub (1930)
TTITLE3=How You Want It Done? (1932)
TTITLE4=Stove Pipe Stomp (1932)
TTITLE5=Hokum Stomp (1930)
TTITLE6=I Can't Be Satisfied (1930)
TTITLE7=Brownskin Shuffle (1932)
TTITLE8=Eagle Ridin' Papa (1930)
TTITLE9=Starvation Blues (1928)
TTITLE10=Hip Shakin' Strut (1930)
TTITLE11=Good Liquor Gonna Carry Me Down (1935)
TTITLE12=Skoodle Do Do (1930)
TTITLE13=Banker's Blues (1930)
EXTD=
EXTT0=
EXTT1=
EXTT2=
EXTT3=
EXTT4=
EXTT5=
EXTT6=
EXTT7=
EXTT8=
EXTT9=
EXTT10=
EXTT11=
EXTT12=
EXTT13=
PLAYORDER=
